<?xml version="1.0" encoding="UTF-8" standalone="no"?>
<!DOCTYPE svg PUBLIC "-//W3C//DTD SVG 1.1//EN"
 "http://www.w3.org/Graphics/SVG/1.1/DTD/svg11.dtd">
<!-- Generated by graphviz version 2.34.0 (20140110.0345)
 -->
<!-- Title: dependencies Pages: 1 -->
<svg width="814pt" height="646pt"
 viewBox="0.00 0.00 814.45 646.02" xmlns="http://www.w3.org/2000/svg" xmlns:xlink="http://www.w3.org/1999/xlink">
<g id="graph0" class="graph" transform="scale(1 1) rotate(0) translate(4 642.018)">
<title>dependencies</title>
<polygon fill="white" stroke="white" points="-4,4 -4,-642.018 810.455,-642.018 810.455,4 -4,4"/>
<!-- 7dfc82d8&#45;bdfa&#45;49c5&#45;bf25&#45;55bb31949489 -->
<g id="node1" class="node"><title>7dfc82d8&#45;bdfa&#45;49c5&#45;bf25&#45;55bb31949489</title>
<polygon fill="lightgreen" stroke="black" points="700.039,-384.976 598.039,-384.976 598.039,-346.976 700.039,-346.976 700.039,-384.976"/>
<text text-anchor="middle" x="649.039" y="-369.776" font-family="Times,serif" font-size="14.00">: extensive help</text>
<text text-anchor="middle" x="649.039" y="-354.776" font-family="Times,serif" font-size="14.00">message</text>
</g>
<!-- dotwarrior -->
<g id="node8" class="node"><title>dotwarrior</title>
<polygon fill="none" stroke="black" points="349.499,-373.363 281.464,-355.363 349.499,-337.363 417.534,-355.363 349.499,-373.363"/>
<text text-anchor="middle" x="349.499" y="-351.663" font-family="Times,serif" font-size="14.00" fill="red">dotwarrior</text>
</g>
<!-- 7dfc82d8&#45;bdfa&#45;49c5&#45;bf25&#45;55bb31949489&#45;&gt;dotwarrior -->
<g id="edge2" class="edge"><title>7dfc82d8&#45;bdfa&#45;49c5&#45;bf25&#45;55bb31949489&#45;&gt;dotwarrior</title>
<path fill="none" stroke="blue" stroke-width="2" d="M597.887,-364.164C548.91,-362.429 474.605,-359.796 420.023,-357.862"/>
<polygon fill="blue" stroke="blue" points="419.845,-354.354 409.727,-357.497 419.597,-361.349 419.845,-354.354"/>
</g>
<!-- 75a84a64&#45;2b73&#45;4114&#45;ba15&#45;e9adc2ad7d5a -->
<g id="node2" class="node"><title>75a84a64&#45;2b73&#45;4114&#45;ba15&#45;e9adc2ad7d5a</title>
<polygon fill="green" stroke="black" points="492,-277.807 361,-277.807 361,-239.807 492,-239.807 492,-277.807"/>
<text text-anchor="middle" x="426.5" y="-262.607" font-family="Times,serif" font-size="14.00">: contineous color by</text>
<text text-anchor="middle" x="426.5" y="-247.607" font-family="Times,serif" font-size="14.00">urgency of the nodes</text>
</g>
<!-- 75a84a64&#45;2b73&#45;4114&#45;ba15&#45;e9adc2ad7d5a&#45;&gt;dotwarrior -->
<g id="edge5" class="edge"><title>75a84a64&#45;2b73&#45;4114&#45;ba15&#45;e9adc2ad7d5a&#45;&gt;dotwarrior</title>
<path fill="none" stroke="blue" stroke-width="2" d="M411.287,-277.884C398.821,-293.515 381.138,-315.69 367.881,-332.314"/>
<polygon fill="blue" stroke="blue" points="364.901,-330.436 361.402,-340.437 370.374,-334.801 364.901,-330.436"/>
</g>
<!-- 8450b7f0&#45;a355&#45;4ce3&#45;ab4a&#45;c00de11eabcd -->
<g id="node3" class="node"><title>8450b7f0&#45;a355&#45;4ce3&#45;ab4a&#45;c00de11eabcd</title>
<polygon fill="lightgreen" stroke="black" points="549.963,-518.614 412.963,-518.614 412.963,-480.614 549.963,-480.614 549.963,-518.614"/>
<text text-anchor="middle" x="481.463" y="-503.414" font-family="Times,serif" font-size="14.00">: connections between</text>
<text text-anchor="middle" x="481.463" y="-488.414" font-family="Times,serif" font-size="14.00">projects and tag</text>
</g>
<!-- f67f8f5b&#45;148f&#45;4aae&#45;b088&#45;6a0f3039aa59 -->
<g id="node4" class="node"><title>f67f8f5b&#45;148f&#45;4aae&#45;b088&#45;6a0f3039aa59</title>
<polygon fill="green" stroke="black" points="336.498,-470.92 208.498,-470.92 208.498,-432.92 336.498,-432.92 336.498,-470.92"/>
<text text-anchor="middle" x="272.498" y="-455.72" font-family="Times,serif" font-size="14.00">: exclude tasks from</text>
<text text-anchor="middle" x="272.498" y="-440.72" font-family="Times,serif" font-size="14.00">graph</text>
</g>
<!-- 8450b7f0&#45;a355&#45;4ce3&#45;ab4a&#45;c00de11eabcd&#45;&gt;f67f8f5b&#45;148f&#45;4aae&#45;b088&#45;6a0f3039aa59 -->
<g id="edge8" class="edge"><title>8450b7f0&#45;a355&#45;4ce3&#45;ab4a&#45;c00de11eabcd&#45;&gt;f67f8f5b&#45;148f&#45;4aae&#45;b088&#45;6a0f3039aa59</title>
<path fill="none" stroke="black" stroke-width="2" d="M412.75,-483.931C391.5,-479.081 368.005,-473.718 346.418,-468.791"/>
<polygon fill="black" stroke="black" points="347.177,-465.375 336.649,-466.562 345.619,-472.199 347.177,-465.375"/>
</g>
<!-- 8450b7f0&#45;a355&#45;4ce3&#45;ab4a&#45;c00de11eabcd&#45;&gt;dotwarrior -->
<g id="edge7" class="edge"><title>8450b7f0&#45;a355&#45;4ce3&#45;ab4a&#45;c00de11eabcd&#45;&gt;dotwarrior</title>
<path fill="none" stroke="blue" stroke-width="2" d="M463.939,-480.459C439.586,-453.839 395.606,-405.764 369.838,-377.596"/>
<polygon fill="blue" stroke="blue" points="372.416,-375.229 363.084,-370.213 367.251,-379.954 372.416,-375.229"/>
</g>
<!-- f67f8f5b&#45;148f&#45;4aae&#45;b088&#45;6a0f3039aa59&#45;&gt;dotwarrior -->
<g id="edge10" class="edge"><title>f67f8f5b&#45;148f&#45;4aae&#45;b088&#45;6a0f3039aa59&#45;&gt;dotwarrior</title>
<path fill="none" stroke="blue" stroke-width="2" d="M287.711,-432.843C300.177,-417.211 317.86,-395.037 331.117,-378.413"/>
<polygon fill="blue" stroke="blue" points="334.097,-380.29 337.596,-370.29 328.624,-375.926 334.097,-380.29"/>
</g>
<!-- f758484a&#45;500c&#45;4826&#45;a286&#45;1d77ff2d6919 -->
<g id="node5" class="node"><title>f758484a&#45;500c&#45;4826&#45;a286&#45;1d77ff2d6919</title>
<polygon fill="green" stroke="black" points="239,-292.807 120,-292.807 120,-224.807 239,-224.807 239,-292.807"/>
<text text-anchor="middle" x="179.5" y="-277.607" font-family="Times,serif" font-size="14.00">: color code the</text>
<text text-anchor="middle" x="179.5" y="-262.607" font-family="Times,serif" font-size="14.00">fillcolor of the box</text>
<text text-anchor="middle" x="179.5" y="-247.607" font-family="Times,serif" font-size="14.00">for the =added=</text>
<text text-anchor="middle" x="179.5" y="-232.607" font-family="Times,serif" font-size="14.00">field</text>
</g>
<!-- f758484a&#45;500c&#45;4826&#45;a286&#45;1d77ff2d6919&#45;&gt;dotwarrior -->
<g id="edge13" class="edge"><title>f758484a&#45;500c&#45;4826&#45;a286&#45;1d77ff2d6919&#45;&gt;dotwarrior</title>
<path fill="none" stroke="blue" stroke-width="2" d="M239.435,-292.849C266.201,-308.052 296.609,-325.323 318.67,-337.853"/>
<polygon fill="blue" stroke="blue" points="317.155,-341.018 327.579,-342.913 320.613,-334.931 317.155,-341.018"/>
</g>
<!-- 2a097447&#45;f9a4&#45;4cc2&#45;a4ff&#45;952736982205 -->
<g id="node6" class="node"><title>2a097447&#45;f9a4&#45;4cc2&#45;a4ff&#45;952736982205</title>
<polygon fill="green" stroke="black" points="333.998,-92.1948 210.998,-92.1948 210.998,-39.1948 333.998,-39.1948 333.998,-92.1948"/>
<text text-anchor="middle" x="272.498" y="-76.9948" font-family="Times,serif" font-size="14.00">: colorcode by time</text>
<text text-anchor="middle" x="272.498" y="-61.9948" font-family="Times,serif" font-size="14.00">spent working on</text>
<text text-anchor="middle" x="272.498" y="-46.9948" font-family="Times,serif" font-size="14.00">task</text>
</g>
<!-- 2a097447&#45;f9a4&#45;4cc2&#45;a4ff&#45;952736982205&#45;&gt;dotwarrior -->
<g id="edge17" class="edge"><title>2a097447&#45;f9a4&#45;4cc2&#45;a4ff&#45;952736982205&#45;&gt;dotwarrior</title>
<path fill="none" stroke="blue" stroke-width="2" d="M279.604,-92.4269C294.259,-147.558 327.693,-273.332 342.369,-328.541"/>
<polygon fill="blue" stroke="blue" points="339.011,-329.533 344.963,-338.298 345.776,-327.734 339.011,-329.533"/>
</g>
<!-- 426bc229&#45;e1d1&#45;42ed&#45;a5c5&#45;f78a648aeb14 -->
<g id="node7" class="node"><title>426bc229&#45;e1d1&#45;42ed&#45;a5c5&#45;f78a648aeb14</title>
<polygon fill="lightgreen" stroke="black" points="518.481,-164.904 389.481,-164.904 389.481,-111.904 518.481,-111.904 518.481,-164.904"/>
<text text-anchor="middle" x="453.981" y="-149.704" font-family="Times,serif" font-size="14.00">: color code tasks</text>
<text text-anchor="middle" x="453.981" y="-134.704" font-family="Times,serif" font-size="14.00">with a custom scalar</text>
<text text-anchor="middle" x="453.981" y="-119.704" font-family="Times,serif" font-size="14.00">field on tasks</text>
</g>
<!-- 426bc229&#45;e1d1&#45;42ed&#45;a5c5&#45;f78a648aeb14&#45;&gt;75a84a64&#45;2b73&#45;4114&#45;ba15&#45;e9adc2ad7d5a -->
<g id="edge3" class="edge"><title>426bc229&#45;e1d1&#45;42ed&#45;a5c5&#45;f78a648aeb14&#45;&gt;75a84a64&#45;2b73&#45;4114&#45;ba15&#45;e9adc2ad7d5a</title>
<path fill="none" stroke="black" stroke-width="2" d="M447.882,-165.125C443.513,-184.27 437.631,-210.038 433.143,-229.704"/>
<polygon fill="black" stroke="black" points="429.687,-229.113 430.874,-239.642 436.512,-230.671 429.687,-229.113"/>
</g>
<!-- 426bc229&#45;e1d1&#45;42ed&#45;a5c5&#45;f78a648aeb14&#45;&gt;f758484a&#45;500c&#45;4826&#45;a286&#45;1d77ff2d6919 -->
<g id="edge11" class="edge"><title>426bc229&#45;e1d1&#45;42ed&#45;a5c5&#45;f78a648aeb14&#45;&gt;f758484a&#45;500c&#45;4826&#45;a286&#45;1d77ff2d6919</title>
<path fill="none" stroke="black" stroke-width="2" d="M393.405,-164.976C350.662,-183.725 293.311,-208.883 248.753,-228.429"/>
<polygon fill="black" stroke="black" points="247.2,-225.288 239.449,-232.51 250.012,-231.698 247.2,-225.288"/>
</g>
<!-- 426bc229&#45;e1d1&#45;42ed&#45;a5c5&#45;f78a648aeb14&#45;&gt;2a097447&#45;f9a4&#45;4cc2&#45;a4ff&#45;952736982205 -->
<g id="edge15" class="edge"><title>426bc229&#45;e1d1&#45;42ed&#45;a5c5&#45;f78a648aeb14&#45;&gt;2a097447&#45;f9a4&#45;4cc2&#45;a4ff&#45;952736982205</title>
<path fill="none" stroke="black" stroke-width="2" d="M389.23,-112.462C374.534,-106.574 358.843,-100.288 343.889,-94.2965"/>
<polygon fill="black" stroke="black" points="344.77,-90.8791 334.185,-90.409 342.166,-97.377 344.77,-90.8791"/>
</g>
<!-- 426bc229&#45;e1d1&#45;42ed&#45;a5c5&#45;f78a648aeb14&#45;&gt;dotwarrior -->
<g id="edge19" class="edge"><title>426bc229&#45;e1d1&#45;42ed&#45;a5c5&#45;f78a648aeb14&#45;&gt;dotwarrior</title>
<path fill="none" stroke="blue" stroke-width="2" d="M417.233,-164.981C395.882,-182.663 370.714,-207.875 357.8,-236.607 344.737,-265.673 344.398,-302.805 346.195,-327.744"/>
<polygon fill="blue" stroke="blue" points="342.73,-328.296 347.098,-337.948 349.702,-327.679 342.73,-328.296"/>
</g>
<!-- implement -->
<g id="node9" class="node"><title>implement</title>
<ellipse fill="black" stroke="black" cx="537.77" cy="-205.223" rx="49.2915" ry="18"/>
<text text-anchor="middle" x="537.77" y="-201.523" font-family="Times,serif" font-size="14.00" fill="white">implement</text>
</g>
<!-- implement&#45;&gt;75a84a64&#45;2b73&#45;4114&#45;ba15&#45;e9adc2ad7d5a -->
<g id="edge4" class="edge"><title>implement&#45;&gt;75a84a64&#45;2b73&#45;4114&#45;ba15&#45;e9adc2ad7d5a</title>
<path fill="none" stroke="black" stroke-dasharray="5,2" d="M507.951,-219.582C497.893,-224.426 486.388,-229.967 475.256,-235.327"/>
<polygon fill="black" stroke="black" points="473.524,-232.277 466.033,-239.769 476.561,-238.584 473.524,-232.277"/>
</g>
<!-- implement&#45;&gt;f67f8f5b&#45;148f&#45;4aae&#45;b088&#45;6a0f3039aa59 -->
<g id="edge9" class="edge"><title>implement&#45;&gt;f67f8f5b&#45;148f&#45;4aae&#45;b088&#45;6a0f3039aa59</title>
<path fill="none" stroke="black" stroke-dasharray="5,2" d="M529.667,-222.985C521.96,-238.953 509.449,-262.648 495.2,-281.007 445.267,-345.343 365.635,-398.51 316.35,-427.677"/>
<polygon fill="black" stroke="black" points="314.382,-424.773 307.515,-432.841 317.914,-430.817 314.382,-424.773"/>
</g>
<!-- implement&#45;&gt;f758484a&#45;500c&#45;4826&#45;a286&#45;1d77ff2d6919 -->
<g id="edge12" class="edge"><title>implement&#45;&gt;f758484a&#45;500c&#45;4826&#45;a286&#45;1d77ff2d6919</title>
<path fill="none" stroke="black" stroke-dasharray="5,2" d="M492.031,-212.064C430.719,-221.234 321.309,-237.598 249.572,-248.327"/>
<polygon fill="black" stroke="black" points="248.644,-244.927 239.272,-249.867 249.679,-251.85 248.644,-244.927"/>
</g>
<!-- implement&#45;&gt;2a097447&#45;f9a4&#45;4cc2&#45;a4ff&#45;952736982205 -->
<g id="edge16" class="edge"><title>implement&#45;&gt;2a097447&#45;f9a4&#45;4cc2&#45;a4ff&#45;952736982205</title>
<path fill="none" stroke="black" stroke-dasharray="5,2" d="M490.575,-199.752C459.553,-194.723 418.834,-185.323 386.281,-168.104 353.777,-150.91 323.171,-122.387 301.906,-99.804"/>
<polygon fill="black" stroke="black" points="304.421,-97.3676 295.064,-92.398 299.279,-102.118 304.421,-97.3676"/>
</g>
<!-- refactor -->
<g id="node10" class="node"><title>refactor</title>
<ellipse fill="black" stroke="black" cx="622.5" cy="-107.807" rx="38.1938" ry="18"/>
<text text-anchor="middle" x="622.5" y="-104.107" font-family="Times,serif" font-size="14.00" fill="white">refactor</text>
</g>
<!-- document -->
<g id="node11" class="node"><title>document</title>
<ellipse fill="black" stroke="black" cx="760.309" cy="-419.561" rx="46.2923" ry="18"/>
<text text-anchor="middle" x="760.309" y="-415.861" font-family="Times,serif" font-size="14.00" fill="white">document</text>
</g>
<!-- document&#45;&gt;7dfc82d8&#45;bdfa&#45;49c5&#45;bf25&#45;55bb31949489 -->
<g id="edge1" class="edge"><title>document&#45;&gt;7dfc82d8&#45;bdfa&#45;49c5&#45;bf25&#45;55bb31949489</title>
<path fill="none" stroke="black" stroke-dasharray="5,2" d="M731.074,-405.482C720.811,-400.54 708.988,-394.846 697.57,-389.348"/>
<polygon fill="black" stroke="black" points="699.066,-386.184 688.538,-384.998 696.029,-392.49 699.066,-386.184"/>
</g>
<!-- idea -->
<g id="node12" class="node"><title>idea</title>
<ellipse fill="black" stroke="black" cx="508.944" cy="-620.018" rx="27" ry="18"/>
<text text-anchor="middle" x="508.944" y="-616.318" font-family="Times,serif" font-size="14.00" fill="white">idea</text>
</g>
<!-- idea&#45;&gt;8450b7f0&#45;a355&#45;4ce3&#45;ab4a&#45;c00de11eabcd -->
<g id="edge6" class="edge"><title>idea&#45;&gt;8450b7f0&#45;a355&#45;4ce3&#45;ab4a&#45;c00de11eabcd</title>
<path fill="none" stroke="black" stroke-dasharray="5,2" d="M504.83,-601.992C500.415,-582.65 493.336,-551.634 488.125,-528.804"/>
<polygon fill="black" stroke="black" points="491.516,-527.932 485.878,-518.961 484.692,-529.49 491.516,-527.932"/>
</g>
<!-- maintain -->
<g id="node13" class="node"><title>maintain</title>
<ellipse fill="black" stroke="black" cx="671.5" cy="-512.807" rx="42.4939" ry="18"/>
<text text-anchor="middle" x="671.5" y="-509.107" font-family="Times,serif" font-size="14.00" fill="white">maintain</text>
</g>
<!-- design -->
<g id="node14" class="node"><title>design</title>
<ellipse fill="black" stroke="black" cx="481.463" cy="-18" rx="33.5952" ry="18"/>
<text text-anchor="middle" x="481.463" y="-14.3" font-family="Times,serif" font-size="14.00" fill="white">design</text>
</g>
<!-- design&#45;&gt;426bc229&#45;e1d1&#45;42ed&#45;a5c5&#45;f78a648aeb14 -->
<g id="edge18" class="edge"><title>design&#45;&gt;426bc229&#45;e1d1&#45;42ed&#45;a5c5&#45;f78a648aeb14</title>
<path fill="none" stroke="black" stroke-dasharray="5,2" d="M477.348,-36.0256C473.393,-53.3555 467.299,-80.0558 462.326,-101.844"/>
<polygon fill="black" stroke="black" points="458.873,-101.242 460.06,-111.77 465.698,-102.799 458.873,-101.242"/>
</g>
<!-- 20140117T233619Z -->
<g id="node15" class="node"><title>20140117T233619Z</title>
<polygon fill="yellow" stroke="black" points="106,-285.307 -8.88178e-16,-285.307 -8.88178e-16,-232.307 112,-232.307 112,-279.307 106,-285.307"/>
<polyline fill="none" stroke="black" points="106,-285.307 106,-279.307 "/>
<polyline fill="none" stroke="black" points="112,-279.307 106,-279.307 "/>
<text text-anchor="middle" x="56" y="-270.107" font-family="Times,serif" font-size="14.00">to see which tags</text>
<text text-anchor="middle" x="56" y="-255.107" font-family="Times,serif" font-size="14.00">are currently in =</text>
<text text-anchor="middle" x="56" y="-240.107" font-family="Times,serif" font-size="14.00">use=</text>
</g>
<!-- 20140117T233619Z&#45;&gt;f758484a&#45;500c&#45;4826&#45;a286&#45;1d77ff2d6919 -->
<g id="edge14" class="edge"><title>20140117T233619Z&#45;&gt;f758484a&#45;500c&#45;4826&#45;a286&#45;1d77ff2d6919</title>
<path fill="none" stroke="green" d="M112.329,-258.807C112.488,-258.807 112.647,-258.807 112.806,-258.807"/>
<polygon fill="green" stroke="green" points="109.983,-262.307 119.983,-258.807 109.983,-255.307 109.983,-262.307"/>
</g>
</g>
</svg>
