<?xml version="1.0" encoding="UTF-8" standalone="no"?>
<!DOCTYPE svg PUBLIC "-//W3C//DTD SVG 1.1//EN"
 "http://www.w3.org/Graphics/SVG/1.1/DTD/svg11.dtd">
<!-- Generated by graphviz version 2.34.0 (20140110.0345)
 -->
<!-- Title: dependencies Pages: 1 -->
<svg width="725pt" height="803pt"
 viewBox="0.00 0.00 724.98 803.17" xmlns="http://www.w3.org/2000/svg" xmlns:xlink="http://www.w3.org/1999/xlink">
<g id="graph0" class="graph" transform="scale(1 1) rotate(0) translate(4 799.17)">
<title>dependencies</title>
<polygon fill="white" stroke="white" points="-4,4 -4,-799.17 720.979,-799.17 720.979,4 -4,4"/>
<!-- 7dfc82d8&#45;bdfa&#45;49c5&#45;bf25&#45;55bb31949489 -->
<g id="node1" class="node"><title>7dfc82d8&#45;bdfa&#45;49c5&#45;bf25&#45;55bb31949489</title>
<polygon fill="lightgreen" stroke="black" points="565.331,-190.227 463.331,-190.227 463.331,-152.227 565.331,-152.227 565.331,-190.227"/>
<text text-anchor="middle" x="514.331" y="-175.027" font-family="Times,serif" font-size="14.00">: extensive help</text>
<text text-anchor="middle" x="514.331" y="-160.027" font-family="Times,serif" font-size="14.00">message</text>
</g>
<!-- dotwarrior -->
<g id="node9" class="node"><title>dotwarrior</title>
<polygon fill="none" stroke="black" points="344.944,-356.463 276.909,-338.463 344.944,-320.463 412.979,-338.463 344.944,-356.463"/>
<text text-anchor="middle" x="344.944" y="-334.763" font-family="Times,serif" font-size="14.00" fill="red">dotwarrior</text>
</g>
<!-- 7dfc82d8&#45;bdfa&#45;49c5&#45;bf25&#45;55bb31949489&#45;&gt;dotwarrior -->
<g id="edge2" class="edge"><title>7dfc82d8&#45;bdfa&#45;49c5&#45;bf25&#45;55bb31949489&#45;&gt;dotwarrior</title>
<path fill="none" stroke="blue" stroke-width="2" d="M494.9,-190.411C463.203,-221.706 400.56,-283.553 367.152,-316.537"/>
<polygon fill="blue" stroke="blue" points="364.369,-314.366 359.712,-323.883 369.287,-319.347 364.369,-314.366"/>
</g>
<!-- 75a84a64&#45;2b73&#45;4114&#45;ba15&#45;e9adc2ad7d5a -->
<g id="node2" class="node"><title>75a84a64&#45;2b73&#45;4114&#45;ba15&#45;e9adc2ad7d5a</title>
<polygon fill="green" stroke="black" points="416.978,-536.508 285.978,-536.508 285.978,-498.508 416.978,-498.508 416.978,-536.508"/>
<text text-anchor="middle" x="351.478" y="-521.308" font-family="Times,serif" font-size="14.00">: contineous color by</text>
<text text-anchor="middle" x="351.478" y="-506.308" font-family="Times,serif" font-size="14.00">urgency of the nodes</text>
</g>
<!-- 75a84a64&#45;2b73&#45;4114&#45;ba15&#45;e9adc2ad7d5a&#45;&gt;dotwarrior -->
<g id="edge5" class="edge"><title>75a84a64&#45;2b73&#45;4114&#45;ba15&#45;e9adc2ad7d5a&#45;&gt;dotwarrior</title>
<path fill="none" stroke="blue" stroke-width="2" d="M350.779,-498.347C349.622,-466.654 347.306,-403.176 345.965,-366.455"/>
<polygon fill="blue" stroke="blue" points="349.462,-366.285 345.599,-356.419 342.466,-366.54 349.462,-366.285"/>
</g>
<!-- 8450b7f0&#45;a355&#45;4ce3&#45;ab4a&#45;c00de11eabcd -->
<g id="node3" class="node"><title>8450b7f0&#45;a355&#45;4ce3&#45;ab4a&#45;c00de11eabcd</title>
<polygon fill="lightgreen" stroke="black" points="245.94,-236.565 108.94,-236.565 108.94,-198.565 245.94,-198.565 245.94,-236.565"/>
<text text-anchor="middle" x="177.44" y="-221.365" font-family="Times,serif" font-size="14.00">: connections between</text>
<text text-anchor="middle" x="177.44" y="-206.365" font-family="Times,serif" font-size="14.00">projects and tag</text>
</g>
<!-- f67f8f5b&#45;148f&#45;4aae&#45;b088&#45;6a0f3039aa59 -->
<g id="node4" class="node"><title>f67f8f5b&#45;148f&#45;4aae&#45;b088&#45;6a0f3039aa59</title>
<polygon fill="green" stroke="black" points="185.959,-406.339 57.9586,-406.339 57.9586,-368.339 185.959,-368.339 185.959,-406.339"/>
<text text-anchor="middle" x="121.959" y="-391.139" font-family="Times,serif" font-size="14.00">: exclude tasks from</text>
<text text-anchor="middle" x="121.959" y="-376.139" font-family="Times,serif" font-size="14.00">graph</text>
</g>
<!-- 8450b7f0&#45;a355&#45;4ce3&#45;ab4a&#45;c00de11eabcd&#45;&gt;f67f8f5b&#45;148f&#45;4aae&#45;b088&#45;6a0f3039aa59 -->
<g id="edge8" class="edge"><title>8450b7f0&#45;a355&#45;4ce3&#45;ab4a&#45;c00de11eabcd&#45;&gt;f67f8f5b&#45;148f&#45;4aae&#45;b088&#45;6a0f3039aa59</title>
<path fill="none" stroke="black" stroke-width="2" d="M171.184,-236.71C161.459,-266.466 142.66,-323.991 131.318,-358.701"/>
<polygon fill="black" stroke="black" points="127.972,-357.672 128.192,-368.264 134.626,-359.846 127.972,-357.672"/>
</g>
<!-- f7870639&#45;a159&#45;4f2b&#45;9d28&#45;03cb83818548 -->
<g id="node8" class="node"><title>f7870639&#45;a159&#45;4f2b&#45;9d28&#45;03cb83818548</title>
<polygon fill="green" stroke="black" points="411.478,-223.114 307.478,-223.114 307.478,-170.114 411.478,-170.114 411.478,-223.114"/>
<text text-anchor="middle" x="359.478" y="-207.914" font-family="Times,serif" font-size="14.00">: lay out</text>
<text text-anchor="middle" x="359.478" y="-192.914" font-family="Times,serif" font-size="14.00">configuration to</text>
<text text-anchor="middle" x="359.478" y="-177.914" font-family="Times,serif" font-size="14.00">text file</text>
</g>
<!-- 8450b7f0&#45;a355&#45;4ce3&#45;ab4a&#45;c00de11eabcd&#45;&gt;f7870639&#45;a159&#45;4f2b&#45;9d28&#45;03cb83818548 -->
<g id="edge20" class="edge"><title>8450b7f0&#45;a355&#45;4ce3&#45;ab4a&#45;c00de11eabcd&#45;&gt;f7870639&#45;a159&#45;4f2b&#45;9d28&#45;03cb83818548</title>
<path fill="none" stroke="black" stroke-width="2" d="M246.001,-209.674C262.861,-207.734 280.817,-205.667 297.353,-203.764"/>
<polygon fill="black" stroke="black" points="297.909,-207.223 307.443,-202.603 297.109,-200.269 297.909,-207.223"/>
</g>
<!-- 8450b7f0&#45;a355&#45;4ce3&#45;ab4a&#45;c00de11eabcd&#45;&gt;dotwarrior -->
<g id="edge7" class="edge"><title>8450b7f0&#45;a355&#45;4ce3&#45;ab4a&#45;c00de11eabcd&#45;&gt;dotwarrior</title>
<path fill="none" stroke="blue" stroke-width="2" d="M203.982,-236.722C235.18,-259.24 286.668,-296.402 318.028,-319.036"/>
<polygon fill="blue" stroke="blue" points="316.149,-321.996 326.306,-325.011 320.246,-316.32 316.149,-321.996"/>
</g>
<!-- f67f8f5b&#45;148f&#45;4aae&#45;b088&#45;6a0f3039aa59&#45;&gt;dotwarrior -->
<g id="edge10" class="edge"><title>f67f8f5b&#45;148f&#45;4aae&#45;b088&#45;6a0f3039aa59&#45;&gt;dotwarrior</title>
<path fill="none" stroke="blue" stroke-width="2" d="M186.156,-373.268C221.681,-365.481 265.071,-355.97 297.51,-348.86"/>
<polygon fill="blue" stroke="blue" points="298.615,-352.201 307.634,-346.641 297.116,-345.363 298.615,-352.201"/>
</g>
<!-- f758484a&#45;500c&#45;4826&#45;a286&#45;1d77ff2d6919 -->
<g id="node5" class="node"><title>f758484a&#45;500c&#45;4826&#45;a286&#45;1d77ff2d6919</title>
<polygon fill="green" stroke="black" points="476.156,-612.508 357.156,-612.508 357.156,-544.508 476.156,-544.508 476.156,-612.508"/>
<text text-anchor="middle" x="416.656" y="-597.308" font-family="Times,serif" font-size="14.00">: color code the</text>
<text text-anchor="middle" x="416.656" y="-582.308" font-family="Times,serif" font-size="14.00">fillcolor of the box</text>
<text text-anchor="middle" x="416.656" y="-567.308" font-family="Times,serif" font-size="14.00">for the =added=</text>
<text text-anchor="middle" x="416.656" y="-552.308" font-family="Times,serif" font-size="14.00">field</text>
</g>
<!-- f758484a&#45;500c&#45;4826&#45;a286&#45;1d77ff2d6919&#45;&gt;dotwarrior -->
<g id="edge13" class="edge"><title>f758484a&#45;500c&#45;4826&#45;a286&#45;1d77ff2d6919&#45;&gt;dotwarrior</title>
<path fill="none" stroke="blue" stroke-width="2" d="M422.154,-544.136C423.544,-528.996 423.769,-511.098 420.178,-495.308 408.767,-445.135 379.222,-392.274 360.734,-362.526"/>
<polygon fill="blue" stroke="blue" points="363.686,-360.646 355.383,-354.065 357.77,-364.387 363.686,-360.646"/>
</g>
<!-- 2a097447&#45;f9a4&#45;4cc2&#45;a4ff&#45;952736982205 -->
<g id="node6" class="node"><title>2a097447&#45;f9a4&#45;4cc2&#45;a4ff&#45;952736982205</title>
<polygon fill="green" stroke="black" points="325.296,-485.215 202.296,-485.215 202.296,-432.215 325.296,-432.215 325.296,-485.215"/>
<text text-anchor="middle" x="263.796" y="-470.015" font-family="Times,serif" font-size="14.00">: colorcode by time</text>
<text text-anchor="middle" x="263.796" y="-455.015" font-family="Times,serif" font-size="14.00">spent working on</text>
<text text-anchor="middle" x="263.796" y="-440.015" font-family="Times,serif" font-size="14.00">task</text>
</g>
<!-- 2a097447&#45;f9a4&#45;4cc2&#45;a4ff&#45;952736982205&#45;&gt;dotwarrior -->
<g id="edge17" class="edge"><title>2a097447&#45;f9a4&#45;4cc2&#45;a4ff&#45;952736982205&#45;&gt;dotwarrior</title>
<path fill="none" stroke="blue" stroke-width="2" d="M281.806,-432.028C295.879,-411.173 315.262,-382.448 328.827,-362.346"/>
<polygon fill="blue" stroke="blue" points="331.739,-364.288 334.431,-354.041 325.936,-360.373 331.739,-364.288"/>
</g>
<!-- 426bc229&#45;e1d1&#45;42ed&#45;a5c5&#45;f78a648aeb14 -->
<g id="node7" class="node"><title>426bc229&#45;e1d1&#45;42ed&#45;a5c5&#45;f78a648aeb14</title>
<polygon fill="lightgreen" stroke="black" points="542.387,-436.525 413.387,-436.525 413.387,-383.525 542.387,-383.525 542.387,-436.525"/>
<text text-anchor="middle" x="477.887" y="-421.325" font-family="Times,serif" font-size="14.00">: color code tasks</text>
<text text-anchor="middle" x="477.887" y="-406.325" font-family="Times,serif" font-size="14.00">with a custom scalar</text>
<text text-anchor="middle" x="477.887" y="-391.325" font-family="Times,serif" font-size="14.00">field on tasks</text>
</g>
<!-- 426bc229&#45;e1d1&#45;42ed&#45;a5c5&#45;f78a648aeb14&#45;&gt;75a84a64&#45;2b73&#45;4114&#45;ba15&#45;e9adc2ad7d5a -->
<g id="edge3" class="edge"><title>426bc229&#45;e1d1&#45;42ed&#45;a5c5&#45;f78a648aeb14&#45;&gt;75a84a64&#45;2b73&#45;4114&#45;ba15&#45;e9adc2ad7d5a</title>
<path fill="none" stroke="black" stroke-width="2" d="M446.639,-436.594C426.848,-453.423 401.383,-475.075 381.777,-491.746"/>
<polygon fill="black" stroke="black" points="379.387,-489.183 374.036,-498.328 383.922,-494.516 379.387,-489.183"/>
</g>
<!-- 426bc229&#45;e1d1&#45;42ed&#45;a5c5&#45;f78a648aeb14&#45;&gt;f758484a&#45;500c&#45;4826&#45;a286&#45;1d77ff2d6919 -->
<g id="edge11" class="edge"><title>426bc229&#45;e1d1&#45;42ed&#45;a5c5&#45;f78a648aeb14&#45;&gt;f758484a&#45;500c&#45;4826&#45;a286&#45;1d77ff2d6919</title>
<path fill="none" stroke="black" stroke-width="2" d="M468.184,-436.722C458.63,-463.012 443.87,-503.626 432.592,-534.659"/>
<polygon fill="black" stroke="black" points="429.19,-533.773 429.064,-544.367 435.769,-536.164 429.19,-533.773"/>
</g>
<!-- 426bc229&#45;e1d1&#45;42ed&#45;a5c5&#45;f78a648aeb14&#45;&gt;2a097447&#45;f9a4&#45;4cc2&#45;a4ff&#45;952736982205 -->
<g id="edge15" class="edge"><title>426bc229&#45;e1d1&#45;42ed&#45;a5c5&#45;f78a648aeb14&#45;&gt;2a097447&#45;f9a4&#45;4cc2&#45;a4ff&#45;952736982205</title>
<path fill="none" stroke="black" stroke-width="2" d="M413.362,-424.7C388.798,-430.287 360.666,-436.684 335.478,-442.413"/>
<polygon fill="black" stroke="black" points="334.593,-439.025 325.618,-444.655 336.145,-445.851 334.593,-439.025"/>
</g>
<!-- 426bc229&#45;e1d1&#45;42ed&#45;a5c5&#45;f78a648aeb14&#45;&gt;f7870639&#45;a159&#45;4f2b&#45;9d28&#45;03cb83818548 -->
<g id="edge21" class="edge"><title>426bc229&#45;e1d1&#45;42ed&#45;a5c5&#45;f78a648aeb14&#45;&gt;f7870639&#45;a159&#45;4f2b&#45;9d28&#45;03cb83818548</title>
<path fill="none" stroke="black" stroke-width="2" d="M463.129,-383.428C441.932,-345.224 402.822,-274.735 379.176,-232.118"/>
<polygon fill="black" stroke="black" points="382.147,-230.257 374.234,-223.211 376.026,-233.653 382.147,-230.257"/>
</g>
<!-- 426bc229&#45;e1d1&#45;42ed&#45;a5c5&#45;f78a648aeb14&#45;&gt;dotwarrior -->
<g id="edge19" class="edge"><title>426bc229&#45;e1d1&#45;42ed&#45;a5c5&#45;f78a648aeb14&#45;&gt;dotwarrior</title>
<path fill="none" stroke="blue" stroke-width="2" d="M428.384,-383.378C411.021,-374.032 392.004,-363.795 376.515,-355.458"/>
<polygon fill="blue" stroke="blue" points="377.838,-352.195 367.374,-350.537 374.52,-358.359 377.838,-352.195"/>
</g>
<!-- f7870639&#45;a159&#45;4f2b&#45;9d28&#45;03cb83818548&#45;&gt;dotwarrior -->
<g id="edge22" class="edge"><title>f7870639&#45;a159&#45;4f2b&#45;9d28&#45;03cb83818548&#45;&gt;dotwarrior</title>
<path fill="none" stroke="blue" stroke-width="2" d="M356.744,-223.295C354.183,-248.294 350.37,-285.504 347.777,-310.813"/>
<polygon fill="blue" stroke="blue" points="344.285,-310.556 346.747,-320.86 351.249,-311.269 344.285,-310.556"/>
</g>
<!-- maintain -->
<g id="node10" class="node"><title>maintain</title>
<ellipse fill="black" stroke="black" cx="618.246" cy="-306" rx="42.4939" ry="18"/>
<text text-anchor="middle" x="618.246" y="-302.3" font-family="Times,serif" font-size="14.00" fill="white">maintain</text>
</g>
<!-- design -->
<g id="node11" class="node"><title>design</title>
<ellipse fill="black" stroke="black" cx="683.182" cy="-451.632" rx="33.5952" ry="18"/>
<text text-anchor="middle" x="683.182" y="-447.932" font-family="Times,serif" font-size="14.00" fill="white">design</text>
</g>
<!-- design&#45;&gt;426bc229&#45;e1d1&#45;42ed&#45;a5c5&#45;f78a648aeb14 -->
<g id="edge18" class="edge"><title>design&#45;&gt;426bc229&#45;e1d1&#45;42ed&#45;a5c5&#45;f78a648aeb14</title>
<path fill="none" stroke="black" stroke-dasharray="5,2" d="M651.554,-445.222C625.245,-439.89 586.728,-432.084 552.648,-425.177"/>
<polygon fill="black" stroke="black" points="553.197,-421.717 542.701,-423.161 551.807,-428.578 553.197,-421.717"/>
</g>
<!-- idea -->
<g id="node12" class="node"><title>idea</title>
<ellipse fill="black" stroke="black" cx="27" cy="-89.9916" rx="27" ry="18"/>
<text text-anchor="middle" x="27" y="-86.2916" font-family="Times,serif" font-size="14.00" fill="white">idea</text>
</g>
<!-- idea&#45;&gt;8450b7f0&#45;a355&#45;4ce3&#45;ab4a&#45;c00de11eabcd -->
<g id="edge6" class="edge"><title>idea&#45;&gt;8450b7f0&#45;a355&#45;4ce3&#45;ab4a&#45;c00de11eabcd</title>
<path fill="none" stroke="black" stroke-dasharray="5,2" d="M43.965,-104.378C68.9361,-125.553 115.977,-165.444 147.014,-191.764"/>
<polygon fill="black" stroke="black" points="145.033,-194.673 154.924,-198.471 149.561,-189.334 145.033,-194.673"/>
</g>
<!-- implement -->
<g id="node13" class="node"><title>implement</title>
<ellipse fill="black" stroke="black" cx="188.034" cy="-599.977" rx="49.2915" ry="18"/>
<text text-anchor="middle" x="188.034" y="-596.277" font-family="Times,serif" font-size="14.00" fill="white">implement</text>
</g>
<!-- implement&#45;&gt;75a84a64&#45;2b73&#45;4114&#45;ba15&#45;e9adc2ad7d5a -->
<g id="edge4" class="edge"><title>implement&#45;&gt;75a84a64&#45;2b73&#45;4114&#45;ba15&#45;e9adc2ad7d5a</title>
<path fill="none" stroke="black" stroke-dasharray="5,2" d="M217.254,-585.233C241.425,-573.037 276.223,-555.48 304.33,-541.298"/>
<polygon fill="black" stroke="black" points="306.23,-544.26 313.581,-536.63 303.076,-538.01 306.23,-544.26"/>
</g>
<!-- implement&#45;&gt;f67f8f5b&#45;148f&#45;4aae&#45;b088&#45;6a0f3039aa59 -->
<g id="edge9" class="edge"><title>implement&#45;&gt;f67f8f5b&#45;148f&#45;4aae&#45;b088&#45;6a0f3039aa59</title>
<path fill="none" stroke="black" stroke-dasharray="5,2" d="M182.4,-581.848C170.935,-544.95 144.804,-460.857 130.957,-416.296"/>
<polygon fill="black" stroke="black" points="134.267,-415.154 127.957,-406.644 127.582,-417.232 134.267,-415.154"/>
</g>
<!-- implement&#45;&gt;f758484a&#45;500c&#45;4826&#45;a286&#45;1d77ff2d6919 -->
<g id="edge12" class="edge"><title>implement&#45;&gt;f758484a&#45;500c&#45;4826&#45;a286&#45;1d77ff2d6919</title>
<path fill="none" stroke="black" stroke-dasharray="5,2" d="M235.96,-595.477C268.018,-592.466 310.735,-588.455 346.586,-585.088"/>
<polygon fill="black" stroke="black" points="347.357,-588.531 356.986,-584.112 346.702,-581.562 347.357,-588.531"/>
</g>
<!-- implement&#45;&gt;2a097447&#45;f9a4&#45;4cc2&#45;a4ff&#45;952736982205 -->
<g id="edge16" class="edge"><title>implement&#45;&gt;2a097447&#45;f9a4&#45;4cc2&#45;a4ff&#45;952736982205</title>
<path fill="none" stroke="black" stroke-dasharray="5,2" d="M197.629,-582.086C209.399,-560.142 229.632,-522.416 244.633,-494.445"/>
<polygon fill="black" stroke="black" points="247.859,-495.837 249.501,-485.37 241.69,-492.528 247.859,-495.837"/>
</g>
<!-- document -->
<g id="node14" class="node"><title>document</title>
<ellipse fill="black" stroke="black" cx="640.956" cy="-18" rx="46.2923" ry="18"/>
<text text-anchor="middle" x="640.956" y="-14.3" font-family="Times,serif" font-size="14.00" fill="white">document</text>
</g>
<!-- document&#45;&gt;7dfc82d8&#45;bdfa&#45;49c5&#45;bf25&#45;55bb31949489 -->
<g id="edge1" class="edge"><title>document&#45;&gt;7dfc82d8&#45;bdfa&#45;49c5&#45;bf25&#45;55bb31949489</title>
<path fill="none" stroke="black" stroke-dasharray="5,2" d="M626.677,-35.2793C604.828,-61.7189 562.904,-112.451 536.907,-143.909"/>
<polygon fill="black" stroke="black" points="534.017,-141.912 530.344,-151.85 539.413,-146.371 534.017,-141.912"/>
</g>
<!-- refactor -->
<g id="node15" class="node"><title>refactor</title>
<ellipse fill="black" stroke="black" cx="614.347" cy="-546" rx="38.1938" ry="18"/>
<text text-anchor="middle" x="614.347" y="-542.3" font-family="Times,serif" font-size="14.00" fill="white">refactor</text>
</g>
<!-- 20140117T233619Z -->
<g id="node16" class="node"><title>20140117T233619Z</title>
<polygon fill="yellow" stroke="black" points="535.69,-795.17 429.69,-795.17 429.69,-742.17 541.69,-742.17 541.69,-789.17 535.69,-795.17"/>
<polyline fill="none" stroke="black" points="535.69,-795.17 535.69,-789.17 "/>
<polyline fill="none" stroke="black" points="541.69,-789.17 535.69,-789.17 "/>
<text text-anchor="middle" x="485.69" y="-779.97" font-family="Times,serif" font-size="14.00">to see which tags</text>
<text text-anchor="middle" x="485.69" y="-764.97" font-family="Times,serif" font-size="14.00">are currently in =</text>
<text text-anchor="middle" x="485.69" y="-749.97" font-family="Times,serif" font-size="14.00">use=</text>
</g>
<!-- 20140117T233619Z&#45;&gt;f758484a&#45;500c&#45;4826&#45;a286&#45;1d77ff2d6919 -->
<g id="edge14" class="edge"><title>20140117T233619Z&#45;&gt;f758484a&#45;500c&#45;4826&#45;a286&#45;1d77ff2d6919</title>
<path fill="none" stroke="green" d="M475.945,-741.828C464.652,-710.72 445.882,-659.016 432.487,-622.116"/>
<polygon fill="green" stroke="green" points="435.736,-620.81 429.034,-612.604 429.156,-623.198 435.736,-620.81"/>
</g>
</g>
</svg>
